<?xml version="1.0" standalone="no"?>
<!DOCTYPE svg PUBLIC "-//W3C//DTD SVG 20010904//EN"
 "http://www.w3.org/TR/2001/REC-SVG-20010904/DTD/svg10.dtd">
<svg version="1.0" xmlns="http://www.w3.org/2000/svg"
 width="282.000000pt" height="277.000000pt" viewBox="0 0 282.000000 277.000000"
 preserveAspectRatio="xMidYMid meet">
<metadata>
Created by potrace 1.10, written by Peter Selinger 2001-2011
</metadata>
<g transform="translate(0.000000,277.000000) scale(0.100000,-0.100000)"
fill="#000000" stroke="none">
<path d="M2075 2730 c-26 -27 -30 -40 -33 -103 l-5 -72 -68 -66 c-38 -37 -69
-72 -69 -78 0 -6 -11 -34 -26 -62 -33 -66 -32 -142 4 -147 22 -3 22 -4 22
-198 l0 -194 -95 0 -95 0 0 -380 0 -380 -377 -2 -378 -3 -3 -97 -3 -98 -194 0
c-162 0 -195 2 -195 14 0 25 -30 46 -64 46 -18 0 -58 -13 -89 -30 -31 -16 -62
-30 -68 -30 -6 0 -42 -31 -79 -70 l-68 -70 -65 0 c-56 0 -70 -4 -96 -26 -28
-23 -31 -32 -31 -80 0 -47 4 -59 26 -79 24 -22 36 -25 100 -25 46 0 74 -4 74
-11 0 -6 26 -40 57 -75 49 -55 62 -65 83 -60 16 3 43 -6 78 -25 44 -25 63 -29
105 -27 42 2 54 7 63 26 11 23 14 23 185 23 l174 0 3 -95 3 -96 819 0 820 0 0
825 0 825 -95 0 -95 0 0 173 c0 169 0 172 23 182 19 8 22 19 25 68 3 48 -2 66
-22 102 -15 24 -26 59 -26 78 0 28 -8 41 -49 75 -37 31 -48 47 -44 62 4 14 0
20 -11 20 -9 0 -16 -4 -16 -10 0 -5 -4 -10 -10 -10 -6 0 -10 29 -10 68 0 99
-33 141 -111 142 -38 0 -50 -5 -74 -30z m104 9 c42 -15 61 -55 61 -126 l0 -59
-87 2 -88 1 -3 44 c-2 24 2 61 8 82 10 35 23 46 76 67 1 0 15 -5 33 -11z m113
-226 c17 -15 18 -37 18 -295 0 -240 -2 -278 -15 -278 -8 0 -15 -7 -15 -15 0
-8 7 -15 15 -15 11 0 15 -12 15 -50 l0 -50 -161 0 -160 0 4 340 c3 311 5 342
22 360 16 18 31 20 138 20 98 0 124 -3 139 -17z m88 -93 c0 -13 -6 -16 -25
-12 -21 4 -25 10 -25 40 l0 35 25 -23 c14 -13 25 -31 25 -40z m-410 -105 l0
-95 -50 0 -50 0 0 41 c0 53 52 149 81 149 17 0 19 -8 19 -95z m429 25 c25 -40
31 -61 31 -105 l0 -55 -50 0 -50 0 0 105 c0 97 2 105 19 105 12 0 30 -18 50
-50z m-429 -335 l0 -195 -25 0 -25 0 0 195 0 195 25 0 25 0 0 -195z m410 -20
l0 -175 -25 0 -25 0 0 175 0 175 25 0 25 0 0 -175z m180 -1000 l0 -785 -774 0
c-426 0 -781 -3 -790 -6 -14 -6 -16 34 -16 405 l0 411 383 0 382 0 -3 380 -2
380 410 0 410 0 0 -785z m-2022 -152 l3 -53 -100 0 c-101 0 -114 5 -93 36 18
27 118 74 152 72 35 -3 35 -3 38 -55z m408 -28 l2 -25 -194 0 -194 0 0 25 0
25 193 0 192 0 1 -25z m-3 -200 l-2 -156 -341 0 c-312 -1 -343 0 -360 16 -18
16 -20 32 -20 133 0 105 2 118 22 139 l21 23 341 0 341 0 -2 -155z m-743 -2
l0 -88 -76 5 c-64 4 -79 9 -95 29 -28 34 -25 87 7 116 23 22 37 25 95 25 l69
0 0 -87z m140 -187 c0 -8 3 -21 6 -30 9 -23 -16 -20 -43 6 -31 29 -29 38 7 38
19 0 30 -5 30 -14z m604 -17 l0 -24 -177 -3 -177 -2 0 23 c0 13 2 26 4 28 2 2
82 3 177 3 l173 -2 0 -23z m-374 -29 l0 -50 -48 0 c-36 0 -61 8 -102 33 -30
17 -56 40 -58 50 -3 15 7 17 102 17 l106 0 0 -50z"/>
<path d="M2112 2698 c-37 -37 11 -113 57 -88 32 16 42 42 28 71 -14 27 -64 38
-85 17z m68 -27 c7 -15 6 -24 -6 -36 -9 -9 -21 -14 -27 -12 -18 6 -31 33 -24
51 9 22 44 20 57 -3z"/>
<path d="M60 640 c-24 -24 -25 -38 -4 -68 18 -27 55 -29 77 -4 23 26 21 58 -5
76 -30 21 -44 20 -68 -4z m60 -15 c17 -21 3 -57 -22 -53 -30 4 -45 32 -29 52
17 20 35 20 51 1z"/>
</g>
</svg>
