<?xml version="1.0" standalone="no"?>
<!DOCTYPE svg PUBLIC "-//W3C//DTD SVG 20010904//EN"
 "http://www.w3.org/TR/2001/REC-SVG-20010904/DTD/svg10.dtd">
<svg version="1.0" xmlns="http://www.w3.org/2000/svg"
 width="196.000000pt" height="300.000000pt" viewBox="0 0 196.000000 300.000000"
 preserveAspectRatio="xMidYMid meet">
<metadata>
Created by potrace 1.10, written by Peter Selinger 2001-2011
</metadata>
<g transform="rotate(90 98 150) translate(0.000000,300.000000) scale(0.100000,-0.100000)"
fill="#000000" stroke="none">
<path d="M1435 2977 c-23 -19 -29 -34 -31 -69 -1 -40 -7 -50 -48 -88 -27 -25
-46 -51 -46 -64 0 -11 -9 -34 -20 -51 -28 -42 -28 -115 0 -122 19 -5 20 -12
18 -125 l-3 -120 -60 -1 c-34 0 -66 3 -73 7 -7 4 -15 1 -19 -9 -3 -10 0 -20 6
-25 9 -5 12 -54 11 -187 0 -122 3 -189 11 -207 10 -20 10 -29 1 -38 -7 -7 -12
-25 -12 -40 l0 -28 -262 -2 -263 -3 0 -65 -1 -65 -121 -3 c-114 -2 -121 -1
-126 18 -7 27 -73 27 -124 0 -21 -11 -47 -20 -58 -20 -12 0 -34 -18 -55 -45
-30 -38 -40 -44 -72 -45 -46 0 -88 -18 -88 -38 0 -13 3 -13 18 1 12 11 36 17
65 17 l47 0 0 -60 0 -60 -49 0 c-32 0 -55 6 -65 16 -15 14 -16 14 -16 -1 0
-19 39 -35 88 -35 30 0 45 -8 77 -40 21 -23 59 -52 83 -65 54 -30 118 -34 126
-7 5 15 20 17 138 16 l132 -1 1 -64 0 -64 263 -3 262 -2 0 -73 c0 -40 5 -78
11 -84 8 -8 8 -17 0 -32 -8 -13 -11 -76 -9 -178 l3 -158 68 -3 67 -3 0 -118
c0 -110 -1 -119 -20 -124 -16 -4 -20 -14 -20 -46 0 -23 9 -58 20 -78 11 -21
20 -47 20 -58 1 -11 21 -37 49 -59 40 -33 47 -43 43 -67 -10 -67 48 -123 106
-103 33 12 52 47 52 99 0 34 7 47 45 84 43 42 95 133 95 165 0 8 -9 23 -19 33
-17 16 -20 35 -23 146 l-3 127 68 0 67 0 -2 838 -3 837 -64 0 -63 1 1 127 c2
112 4 130 22 148 10 10 19 26 19 35 0 31 -51 122 -93 165 -38 38 -45 51 -49
97 -6 60 -19 79 -64 88 -24 4 -37 0 -59 -19z m87 -14 c12 -11 18 -30 18 -62
l0 -46 -57 1 -58 2 -3 37 c-6 71 53 111 100 68z m57 -147 c8 -9 11 -83 9 -246
l-3 -232 -105 0 -105 0 0 234 c0 128 4 239 9 246 12 18 180 17 195 -2z m-219
-41 c0 -18 -5 -25 -20 -25 -24 0 -25 8 -3 32 21 23 23 23 23 -7z m300 -74 c27
-59 22 -81 -20 -81 l-30 0 0 65 c0 81 17 86 50 16z m-300 -37 l0 -75 -32 4
c-29 3 -33 7 -36 34 -4 37 32 113 53 113 12 0 15 -16 15 -76z m280 -200 c0
-104 -3 -135 -12 -132 -9 3 -14 42 -16 136 -2 113 0 132 13 132 13 0 15 -21
15 -136z m-282 -6 c-3 -101 -6 -123 -18 -123 -12 0 -15 22 -18 123 -3 117 -2
122 18 122 20 0 21 -5 18 -122z m402 -958 l0 -810 -280 0 -280 0 0 265 0 265
-265 0 -265 0 0 280 0 280 265 0 265 0 0 265 0 265 280 0 280 0 0 -810z
m-1380 155 l0 -35 -70 0 c-53 0 -70 3 -70 14 0 22 61 56 103 56 36 0 37 -1 37
-35z m-150 -10 c0 -16 -27 -32 -37 -21 -7 7 16 36 28 36 5 0 9 -7 9 -15z m410
-5 c0 -19 -7 -20 -120 -20 -113 0 -120 1 -120 20 0 19 7 20 120 20 113 0 120
-1 120 -20z m0 -137 l0 -108 -236 1 c-129 1 -239 5 -244 10 -13 13 -15 171 -2
186 8 10 69 14 246 16 l236 2 0 -107z m-280 -160 c0 -30 -3 -33 -30 -33 -40 0
-100 30 -100 50 0 14 11 16 65 16 l65 -1 0 -32z m280 15 c0 -16 -13 -18 -130
-18 -117 0 -130 2 -130 18 0 15 13 17 130 17 117 0 130 -2 130 -17z m720 -818
c0 -113 -1 -120 -20 -120 -19 0 -20 7 -20 120 0 113 1 120 20 120 19 0 20 -7
20 -120z m229 -114 c1 -180 -1 -235 -11 -244 -18 -14 -176 -18 -189 -5 -7 7
-13 103 -15 247 l-5 236 110 0 109 0 1 -234z m51 99 c0 -110 -3 -135 -14 -135
-11 0 -15 20 -18 93 -4 127 1 177 18 177 11 0 14 -26 14 -135z m-280 -196 c0
-54 -3 -69 -15 -69 -19 0 -55 71 -55 109 0 25 4 30 28 33 15 2 30 2 35 0 4 -2
7 -34 7 -73z m318 29 c5 -24 -38 -108 -55 -108 -9 0 -13 18 -13 66 l0 65 32
-3 c22 -2 34 -9 36 -20z m-319 -138 c3 -25 3 -25 -18 -6 -26 23 -27 39 -3 34
9 -2 19 -14 21 -28z m181 -120 c0 -51 -6 -62 -37 -79 -27 -14 -56 -2 -73 29
-10 18 -14 83 -6 91 2 2 29 4 60 4 l56 0 0 -45z"/>
<path d="M1450 2940 c-9 -16 -8 -25 1 -36 16 -19 58 -18 66 2 16 41 -46 73
-67 34z m47 -24 c-4 -9 -11 -16 -17 -16 -17 0 -24 31 -9 41 18 11 34 -5 26
-25z"/>
<path d="M1451 96 c-18 -22 3 -56 34 -56 18 0 26 7 31 24 3 14 3 30 -1 35 -9
16 -51 13 -64 -3z m46 -12 c8 -21 -13 -42 -28 -27 -13 13 -5 43 11 43 6 0 13
-7 17 -16z"/>
<path d="M30 1525 c-26 -31 13 -82 44 -56 19 16 21 42 4 59 -16 16 -33 15 -48
-3z m48 -22 c5 -17 -26 -29 -40 -15 -6 6 -7 15 -3 22 9 14 37 9 43 -7z"/>
</g>
</svg>
